<svg width="118" height="37" viewBox="0 0 118 37" fill="none" xmlns="http://www.w3.org/2000/svg">
<path d="M0.0400002 36V2.4H15.112C18.984 2.4 21.96 3.184 24.04 4.752C26.12 6.288 27.16 8.4 27.16 11.088C27.16 12.912 26.744 14.448 25.912 15.696C25.112 16.944 24.024 17.904 22.648 18.576C21.272 19.248 19.784 19.584 18.184 19.584L19.048 18.144C20.968 18.144 22.664 18.48 24.136 19.152C25.608 19.824 26.776 20.816 27.64 22.128C28.504 23.408 28.936 25.008 28.936 26.928C28.936 29.808 27.848 32.048 25.672 33.648C23.528 35.216 20.328 36 16.072 36H0.0400002ZM4.84 32.112H15.88C18.536 32.112 20.568 31.664 21.976 30.768C23.384 29.872 24.088 28.464 24.088 26.544C24.088 24.592 23.384 23.168 21.976 22.272C20.568 21.376 18.536 20.928 15.88 20.928H4.408V17.04H14.68C17.112 17.04 19 16.592 20.344 15.696C21.688 14.8 22.36 13.456 22.36 11.664C22.36 9.872 21.688 8.528 20.344 7.632C19 6.736 17.112 6.288 14.68 6.288H4.84V32.112ZM35.6961 36V0.383998H40.3041V36H35.6961ZM58.5104 36.288C56.0784 36.288 53.9664 35.84 52.1744 34.944C50.4144 34.016 49.0384 32.736 48.0464 31.104C47.0544 29.44 46.5584 27.504 46.5584 25.296C46.5584 22.416 47.1984 19.856 48.4784 17.616C49.7584 15.344 51.5184 13.568 53.7584 12.288C56.0304 10.976 58.6064 10.32 61.4864 10.32C63.8864 10.32 65.9824 10.768 67.7744 11.664C69.5664 12.56 70.9424 13.824 71.9024 15.456C72.8944 17.088 73.3904 19.024 73.3904 21.264C73.3904 24.144 72.7504 26.72 71.4704 28.992C70.1904 31.232 68.4304 33.008 66.1904 34.32C63.9824 35.632 61.4224 36.288 58.5104 36.288ZM58.7984 32.256C60.7184 32.256 62.4304 31.792 63.9344 30.864C65.4384 29.936 66.6064 28.672 67.4384 27.072C68.3024 25.44 68.7344 23.584 68.7344 21.504C68.7344 19.264 68.0784 17.52 66.7664 16.272C65.4544 14.992 63.5824 14.352 61.1504 14.352C59.2624 14.352 57.5664 14.816 56.0624 15.744C54.5584 16.64 53.3744 17.904 52.5104 19.536C51.6464 21.136 51.2144 22.992 51.2144 25.104C51.2144 27.312 51.8704 29.056 53.1824 30.336C54.4944 31.616 56.3664 32.256 58.7984 32.256ZM88.9791 36.288C86.5471 36.288 84.4351 35.84 82.6431 34.944C80.8831 34.016 79.5071 32.736 78.5151 31.104C77.5231 29.44 77.0271 27.504 77.0271 25.296C77.0271 22.416 77.6671 19.856 78.9471 17.616C80.2271 15.344 81.9871 13.568 84.2271 12.288C86.4991 10.976 89.0751 10.32 91.9551 10.32C94.3551 10.32 96.4511 10.768 98.2431 11.664C100.035 12.56 101.411 13.824 102.371 15.456C103.363 17.088 103.859 19.024 103.859 21.264C103.859 24.144 103.219 26.72 101.939 28.992C100.659 31.232 98.8991 33.008 96.6591 34.32C94.4511 35.632 91.8911 36.288 88.9791 36.288ZM89.2671 32.256C91.1871 32.256 92.8991 31.792 94.4031 30.864C95.9071 29.936 97.0751 28.672 97.9071 27.072C98.7711 25.44 99.2031 23.584 99.2031 21.504C99.2031 19.264 98.5471 17.52 97.2351 16.272C95.9231 14.992 94.0511 14.352 91.6191 14.352C89.7311 14.352 88.0351 14.816 86.5311 15.744C85.0271 16.64 83.8431 17.904 82.9791 19.536C82.1151 21.136 81.6831 22.992 81.6831 25.104C81.6831 27.312 82.3391 29.056 83.6511 30.336C84.9631 31.616 86.8351 32.256 89.2671 32.256Z" fill="white"/>
<path d="M109.656 24.336L108.168 2.4H117.096L115.608 24.336H109.656ZM112.632 36.384C111.288 36.384 110.184 35.952 109.32 35.088C108.456 34.224 108.024 33.2 108.024 32.016C108.024 30.8 108.456 29.792 109.32 28.992C110.184 28.16 111.288 27.744 112.632 27.744C114.008 27.744 115.112 28.16 115.944 28.992C116.808 29.792 117.24 30.8 117.24 32.016C117.24 33.2 116.808 34.224 115.944 35.088C115.112 35.952 114.008 36.384 112.632 36.384Z" fill="#D97462"/>
</svg>
